# xmcd
#
# Track frame offsets: 
#        150
#        25124
#        56541
#        86272
#        109366
#        170106
#        220127
#
# Disc length: 3545 seconds
#
# Revision: 1
# Processed by: cddbd v1.5.2PL0 Copyright (c) Steve Scherf et al.
# Submitted via: ExactAudioCopyFreeDBPlugin 1.0
#
DISCID=590dd707
DTITLE=五嶋みどり - Bach and Bartok Violin Sonatas
DYEAR=2007
DGENRE=Classical
TTITLE0=Bach: Sonata #2 In A Minor For Solo Violin, BWV 1003 - 1. Grav
TTITLE0=e
TTITLE1=Bach: Sonata #2 In A Minor For Solo Violin, BWV 1003 - 2. Fuga
TTITLE2=Bach: Sonata #2 In A Minor For Solo Violin, BWV 1003 - 3. Anda
TTITLE2=nte
TTITLE3=Bach: Sonata #2 In A Minor For Solo Violin, BWV 1003 - 4. Alle
TTITLE3=gro
TTITLE4=Bartok: Sonata #1 For Violin and Piano, Sz 75 - 1. Allegro Appas
TTITLE4=sionate
TTITLE5=Bartok: Sonata #1 For Violin and Piano, Sz 75 - 2. Adagio
TTITLE6=Bartok: Sonata #1 For Violin and Piano, Sz 75 - 3. Allegro
EXTD=
EXTT0=
EXTT1=
EXTT2=
EXTT3=
EXTT4=
EXTT5=
EXTT6=
PLAYORDER=
